<?xml version="1.0" encoding="UTF-8"?>
<svg width="147px" height="48px" viewBox="0 0 147 48" version="1.1" xmlns="http://www.w3.org/2000/svg" xmlns:xlink="http://www.w3.org/1999/xlink">
    <!-- Generator: sketchtool 53.1 (72631) - https://sketchapp.com -->
    <title>C28ED311-F50F-4543-81DC-DD55CA169A02</title>
    <desc>Created with sketchtool.</desc>
    <g id="Home" stroke="none" stroke-width="1" fill="none" fill-rule="evenodd">
        <g transform="translate(-260.000000, -4234.000000)" id="logo-/-dark">
            <g transform="translate(260.000000, 4234.000000)">
                <g id="igetup">
                    <path d="M37.0474755,4.13413343 C43.0508666,8.21743735 46.9822909,14.9099894 47,22.4666431 C47,34.8521002 36.4630746,44.9332863 23.5177091,44.9332863 C21.4634514,44.9332863 19.462321,44.6791387 17.5674454,44.20473 L24.7396383,37.3427462 C32.7618689,36.7497353 39.1017332,30.3113307 39.1017332,22.4835863 C39.1017332,19.7218496 38.3048229,17.163431 36.9412208,14.9438758 L26.2803316,25.143664 L20.7019593,19.8065655 L37.0474755,4.13413343 Z M7.88055765,22.4666431 C7.88055765,27.9562301 11.0150716,32.7680904 15.6548606,35.3434522 L2.44385833,48 L5.57837227,36.9530533 L5.47211756,36.8344511 C2.05425772,32.9375221 8.65085781e-13,27.939287 8.65085781e-13,22.4666431 C8.65085781e-13,10.081186 10.5369254,3.55271368e-15 23.4822909,3.55271368e-15 C25.5542577,3.55271368e-15 27.537679,0.254147547 29.4502638,0.728556301 L22.2780708,7.59054006 C14.2381311,8.20049418 7.88055765,14.6219555 7.88055765,22.4666431 Z" id="sign" fill="#FCC10C" fill-rule="nonzero"></path>
                    <path d="M61.3935743,14.615913 C60.124498,14.615913 59,13.9107041 59,12.291929 C59,10.7052089 60.124498,10 61.3935743,10 C62.6947791,10 63.8192771,10.7052089 63.8192771,12.291929 C63.8192771,13.9107041 62.6947791,14.615913 61.3935743,14.615913 Z M59.3694779,31.1242129 L59.3694779,16.9879794 L63.4658635,16.9879794 L63.4658635,31.1242129 L59.3694779,31.1242129 Z M73.1526104,16.571265 C75.7550201,16.571265 77.37751,17.7733257 78.2931727,19.0394963 L78.2931727,16.9719519 L81.8915663,16.9719519 L81.8915663,30.723526 C81.8915663,36.1087579 77.9076305,38 73.746988,38 C71.5301205,38 69.4738956,37.5031483 67.7550201,36.6697195 L67.7550201,33.079565 C69.3453815,34.025186 71.2730924,34.5540927 73.2168675,34.5540927 C75.7228916,34.5540927 77.8273092,33.7046365 77.8273092,30.8998283 L77.8273092,29.6016027 C76.9116466,30.5953062 75.4016064,31.5248998 73.1686747,31.5248998 C68.6546185,31.5248998 66.2289157,27.9026903 66.2289157,24.0400687 C66.2289157,20.1774471 68.6385542,16.571265 73.1526104,16.571265 Z M74.1325301,20.0171723 C71.8032129,20.0171723 70.4056225,21.8443045 70.4056225,24.0560962 C70.4056225,26.2678878 71.7871486,28.09502 74.1325301,28.09502 C75.9317269,28.09502 77.2650602,27.0051517 77.8273092,25.8191185 L77.8273092,22.3732112 C77.2650602,21.1390956 75.9317269,20.0171723 74.1325301,20.0171723 Z M91.8835341,16.571265 C97.7630522,16.571265 99.6425703,21.2032055 98.7108434,25.3863766 L88.7349398,25.3863766 C89.2008032,27.453921 91.3855422,28.3033772 93.7309237,28.3033772 C95.3534137,28.3033772 96.7991968,27.9828277 98.0040161,27.453921 L98.0040161,30.6594161 C96.6706827,31.2203778 94.935743,31.5409273 92.815261,31.5409273 C88.3333333,31.5409273 84.6064257,28.9765312 84.6064257,24.0560962 C84.5903614,18.7189468 88.7028112,16.571265 91.8835341,16.571265 Z M92.0281124,19.6805953 C90.2931727,19.6805953 88.751004,20.7704637 88.686747,22.7097882 L95.0160643,22.7097882 C95.1606426,21.7481397 94.5983936,19.6805953 92.0281124,19.6805953 Z M106.678715,11.8752147 L106.678715,16.9719519 L111.160643,16.9719519 L111.160643,20.4178592 L106.678715,20.4178592 L106.678715,25.9633658 C106.678715,27.4378935 107.417671,28.0789926 108.959839,28.0789926 C109.907631,28.0789926 110.710843,27.9347453 111.53012,27.6141958 L111.53012,30.9158558 C110.437751,31.3005152 109.136546,31.5409273 107.722892,31.5409273 C104.975904,31.5409273 102.614458,30.2747567 102.614458,26.7647396 L102.614458,20.4338867 L100.220884,20.4338867 L100.220884,16.9879794 L102.614458,16.9879794 L102.614458,12.8689181 L106.678715,11.8752147 Z M127.835341,16.9719519 L127.835341,31.1081855 L124.204819,31.1081855 L124.204819,29.3131082 C123.11245,30.5792788 121.48996,31.5248998 119.481928,31.5248998 C115.64257,31.5248998 113.730924,28.9925587 113.730924,25.7229536 L113.730924,16.9719519 L117.827309,16.9719519 L117.827309,25.1940469 C117.827309,27.0852891 118.855422,27.9988552 120.542169,27.9988552 C122.02008,27.9988552 123.11245,27.0532341 123.722892,26.2037779 L123.722892,16.9879794 L127.835341,16.9879794 L127.835341,16.9719519 Z M140.092369,16.571265 C144.574297,16.571265 147,20.1934745 147,24.0560962 C147,27.9187178 144.574297,31.5409273 140.092369,31.5409273 C137.843373,31.5409273 136.349398,30.6273612 135.433735,29.6176302 L135.433735,37.5993131 L131.321285,37.5993131 L131.321285,16.9719519 L134.951807,16.9719519 L134.951807,19.0394963 C135.851406,17.7733257 137.473896,16.571265 140.092369,16.571265 Z M139.096386,20.0171723 C137.297189,20.0171723 135.963855,21.1390956 135.401606,22.3732112 L135.401606,25.7389811 C135.963855,26.9730967 137.297189,28.09502 139.096386,28.09502 C141.425703,28.09502 142.823293,26.2678878 142.823293,24.0560962 C142.807229,21.8443045 141.425703,20.0171723 139.096386,20.0171723 Z" id="Combined-Shape" fill="#2D3142" fill-rule="nonzero"></path>
                </g>
            </g>
        </g>
    </g>
</svg>