<?xml version="1.0" encoding="UTF-8" standalone="no"?>
<svg
   xmlns:dc="http://purl.org/dc/elements/1.1/"
   xmlns:cc="http://creativecommons.org/ns#"
   xmlns:rdf="http://www.w3.org/1999/02/22-rdf-syntax-ns#"
   xmlns:svg="http://www.w3.org/2000/svg"
   xmlns="http://www.w3.org/2000/svg"
   xmlns:sodipodi="http://sodipodi.sourceforge.net/DTD/sodipodi-0.dtd"
   xmlns:inkscape="http://www.inkscape.org/namespaces/inkscape"
   width="47"
   height="48"
   viewBox="0 0 47 48"
   version="1.1"
   id="svg13"
   sodipodi:docname="logo-glyph.svg"
   inkscape:version="0.92.3 (2405546, 2018-03-11)">
  <metadata
     id="metadata19">
    <rdf:RDF>
      <cc:Work
         rdf:about="">
        <dc:format>image/svg+xml</dc:format>
        <dc:type
           rdf:resource="http://purl.org/dc/dcmitype/StillImage" />
        <dc:title>C28ED311-F50F-4543-81DC-DD55CA169A02</dc:title>
      </cc:Work>
    </rdf:RDF>
  </metadata>
  <defs
     id="defs17" />
  <sodipodi:namedview
     pagecolor="#ffffff"
     bordercolor="#666666"
     borderopacity="1"
     objecttolerance="10"
     gridtolerance="10"
     guidetolerance="10"
     inkscape:pageopacity="0"
     inkscape:pageshadow="2"
     inkscape:window-width="1863"
     inkscape:window-height="1025"
     id="namedview15"
     showgrid="false"
     fit-margin-top="0"
     fit-margin-left="0"
     fit-margin-right="0"
     fit-margin-bottom="0"
     inkscape:zoom="3.2108844"
     inkscape:cx="73.5"
     inkscape:cy="24"
     inkscape:window-x="57"
     inkscape:window-y="27"
     inkscape:window-maximized="1"
     inkscape:current-layer="g9" />
  <!-- Generator: sketchtool 53.1 (72631) - https://sketchapp.com -->
  <title
     id="title2">C28ED311-F50F-4543-81DC-DD55CA169A02</title>
  <desc
     id="desc4">Created with sketchtool.</desc>
  <g
     style="fill:none;fill-rule:evenodd;stroke:none;stroke-width:1"
     id="logo-/-dark"
     transform="translate(-260,-4234)">
    <g
       id="g9"
       transform="translate(260,4234)">
      <path
         d="M 37.047475,4.1341334 C 43.050867,8.2174374 46.982291,14.909989 47,22.466643 47,34.8521 36.463075,44.933286 23.517709,44.933286 c -2.054258,0 -4.055388,-0.254147 -5.950264,-0.728556 l 7.172193,-6.861984 c 8.022231,-0.593011 14.362095,-7.031415 14.362095,-14.85916 0,-2.761736 -0.79691,-5.320155 -2.160512,-7.53971 L 26.280332,25.143664 20.701959,19.806566 Z M 7.8805576,22.466643 c 0,5.489587 3.1345144,10.301447 7.7743034,12.876809 L 2.4438583,48 5.5783723,36.953053 5.4721176,36.834451 C 2.0542577,32.937522 0,27.939287 0,22.466643 0,10.081186 10.536925,0 23.482291,0 c 2.071967,0 4.055388,0.25414755 5.967973,0.7285563 L 22.278071,7.5905401 C 14.238131,8.2004942 7.8805576,14.621956 7.8805576,22.466643 Z"
         id="sign"
         inkscape:connector-curvature="0"
         style="fill:#fcc10c;fill-rule:nonzero" />
    </g>
  </g>
</svg>
